<svg xmlns="http://www.w3.org/2000/svg" width="32px" height="32px"  viewBox="0 0 24 24"><path d="M17.601,21.938c-0.366,0-0.725-0.137-1.01-0.4l-4.251-3.904c-0.191-0.177-0.488-0.176-0.68-0.001
                l-4.251,3.905c-0.444,0.41-1.063,0.515-1.618,0.271c-0.554-0.243-0.898-0.769-0.898-1.374V4.562c0-1.378,1.121-2.5,2.5-2.5h9.215
                c1.379,0,2.5,1.122,2.5,2.5v15.872c0,0.605-0.345,1.131-0.898,1.374C18.011,21.895,17.805,21.938,17.601,21.938z M11.999,16.502
                c0.366,0,0.732,0.132,1.018,0.396l4.251,3.904c0.225,0.206,0.471,0.121,0.54,0.09c0.07-0.031,0.3-0.155,0.3-0.458V4.562
                c0-0.827-0.673-1.5-1.5-1.5H7.393c-0.827,0-1.5,0.673-1.5,1.5v15.872c0,0.303,0.229,0.427,0.3,0.458
                c0.069,0.031,0.316,0.116,0.54-0.09l4.251-3.905C11.268,16.634,11.634,16.502,11.999,16.502z"/></svg>