<?xml version="1.0" standalone="no"?>
<!DOCTYPE svg PUBLIC "-//W3C//DTD SVG 20010904//EN"
 "http://www.w3.org/TR/2001/REC-SVG-20010904/DTD/svg10.dtd">
<svg version="1.0" xmlns="http://www.w3.org/2000/svg"
 width="1251.000000pt" height="522.000000pt" viewBox="0 0 1251.000000 522.000000"
 preserveAspectRatio="xMidYMid meet">
<g transform="translate(0.000000,522.000000) scale(0.100000,-0.100000)"
fill="#000000" stroke="none">
<path d="M4585 5138 c-3 -7 -4 -744 -3 -1638 l3 -1625 1630 0 1630 0 3 282 2
282 -44 85 c-24 47 -47 97 -50 111 -4 14 -11 25 -16 25 -6 0 -10 9 -10 19 0
11 -7 26 -15 35 -8 8 -15 19 -15 24 0 9 -200 418 -221 452 -5 8 -12 22 -15 30
-3 8 -10 22 -15 30 -5 8 -12 22 -15 30 -3 8 -10 22 -15 30 -5 8 -12 22 -15 30
-3 8 -10 22 -15 30 -5 8 -12 22 -15 30 -3 8 -10 22 -15 30 -5 8 -12 22 -15 30
-3 8 -10 22 -15 30 -5 8 -12 22 -15 30 -3 8 -10 22 -15 30 -5 8 -12 22 -15 30
-15 39 -69 147 -82 163 -12 14 -31 17 -98 17 l-83 0 -172 -347 c-154 -311
-224 -454 -398 -811 -27 -57 -55 -110 -62 -118 -6 -7 -9 -21 -5 -29 5 -13 32
-15 192 -13 l186 3 21 40 c40 77 47 93 47 105 0 7 9 25 21 41 l20 29 222 0
c122 0 232 -3 244 -6 21 -6 35 -29 77 -129 7 -16 20 -46 30 -65 12 -27 16 -56
14 -110 l-3 -75 -1242 -3 -1243 -2 0 1228 c0 942 3 1231 12 1240 17 17 2449
17 2466 0 9 -9 12 -108 12 -384 l0 -372 121 -243 c66 -134 125 -251 130 -259
5 -8 12 -22 15 -30 3 -8 10 -22 15 -30 5 -8 12 -22 15 -30 25 -64 80 -168 87
-161 4 4 6 437 5 962 l-3 954 -1628 3 c-1297 2 -1629 0 -1632 -10z m2545
-1954 c0 -9 6 -28 13 -42 8 -15 22 -45 31 -67 10 -22 25 -54 33 -72 8 -17 12
-36 9 -42 -5 -7 -44 -11 -100 -11 -116 0 -127 9 -98 72 12 24 34 73 51 111 29
63 61 90 61 51z"/>
<path d="M8206 1015 c-72 -12 -206 -66 -206 -83 0 -4 -16 -18 -35 -31 -32 -21
-89 -90 -122 -146 -54 -91 -71 -269 -35 -372 10 -28 23 -57 29 -65 6 -7 13
-22 17 -33 3 -11 19 -35 35 -52 16 -18 31 -36 33 -41 7 -20 127 -102 175 -121
29 -11 89 -26 135 -32 70 -10 95 -10 159 3 96 20 191 64 252 118 42 37 61 70
39 70 -4 0 -18 10 -32 23 -14 13 -56 47 -93 76 l-68 54 -40 -41 c-47 -50 -100
-67 -178 -57 -102 13 -165 75 -190 187 -24 110 14 214 98 268 42 26 58 31 119
31 77 1 110 -12 156 -60 17 -17 34 -31 38 -31 15 0 198 153 198 165 0 6 -17
25 -37 41 -20 16 -41 34 -47 39 -43 40 -122 72 -226 90 -88 16 -75 16 -174 0z"/>
<path d="M11970 1015 c-47 -7 -101 -20 -120 -30 -55 -26 -95 -48 -100 -54 -3
-4 -20 -19 -39 -34 -58 -48 -141 -166 -141 -200 0 -8 -7 -28 -15 -43 -23 -44
-20 -195 4 -264 34 -96 59 -136 123 -202 119 -123 284 -175 471 -149 51 7 106
19 122 26 17 7 50 21 74 31 24 10 62 31 83 46 l38 28 -2 183 -3 182 -204 3
c-157 2 -206 -1 -213 -10 -13 -21 -10 -186 4 -194 7 -4 30 -7 51 -5 51 3 99
-8 95 -21 -6 -16 -89 -47 -129 -47 -20 -1 -55 6 -79 14 -48 17 -120 71 -120
90 0 7 -6 18 -14 24 -8 7 -20 43 -27 80 -21 118 20 219 113 277 38 24 52 27
130 26 86 0 126 -12 166 -49 7 -7 19 -13 25 -13 15 0 167 161 167 177 0 12
-44 47 -90 71 -50 27 -126 50 -185 57 -33 4 -69 8 -80 10 -11 2 -58 -3 -105
-10z"/>
<path d="M4645 1010 c-61 -7 -152 -47 -191 -85 -12 -11 -31 -42 -44 -68 -29
-62 -25 -153 11 -215 25 -44 119 -112 154 -112 12 0 25 -4 31 -10 5 -5 30 -14
54 -19 232 -46 340 -111 340 -205 0 -54 -37 -109 -93 -138 -37 -20 -58 -22
-172 -22 -132 -1 -197 12 -266 52 -34 19 -55 11 -72 -30 -13 -31 -12 -34 13
-49 14 -9 37 -20 51 -24 13 -3 38 -12 54 -20 61 -26 209 -38 303 -24 188 26
280 101 297 243 12 96 -41 180 -145 228 -72 33 -211 78 -242 78 -28 0 -160 58
-183 80 -40 37 -50 76 -36 129 15 57 32 76 90 102 40 18 60 20 156 15 117 -5
217 -24 237 -44 20 -20 35 -14 57 22 27 42 27 43 -7 60 -94 48 -259 72 -397
56z"/>
<path d="M65 998 c-3 -7 -4 -222 -3 -478 l3 -465 53 -3 52 -3 0 138 c0 95 4
143 12 151 8 8 57 12 155 12 l142 0 112 -150 111 -150 64 0 c35 0 64 2 64 5 0
3 -48 69 -106 147 -59 77 -107 147 -108 155 0 8 17 24 40 37 49 26 114 88 114
108 0 7 5 19 11 25 10 10 33 131 31 163 -5 70 -17 132 -28 141 -8 6 -14 17
-14 24 0 7 -13 28 -30 46 -16 19 -30 37 -30 41 0 3 -26 19 -57 35 l-58 28
-263 3 c-209 3 -263 1 -267 -10z m476 -95 c117 -38 176 -149 148 -281 -15 -73
-53 -122 -123 -156 -53 -26 -58 -26 -223 -24 l-168 3 -3 225 c-1 123 0 230 2
237 9 21 299 18 367 -4z"/>
<path d="M1393 998 c-6 -7 -20 -35 -33 -63 -13 -27 -36 -77 -51 -110 -15 -33
-40 -87 -54 -120 -15 -33 -43 -94 -62 -135 -20 -41 -49 -103 -65 -137 -16 -35
-43 -93 -60 -130 -17 -38 -45 -97 -61 -133 -16 -36 -34 -73 -38 -82 -16 -32
-9 -38 44 -38 l53 0 33 73 c46 100 59 129 65 150 5 16 26 17 254 17 276 0 260
4 293 -70 9 -19 31 -65 49 -102 l33 -68 53 0 c57 0 59 1 45 28 -4 9 -16 35
-26 57 -9 22 -21 47 -26 55 -5 8 -12 22 -15 30 -6 17 -14 34 -79 175 -44 96
-65 140 -132 285 -16 36 -46 99 -66 140 -19 41 -47 101 -62 133 -23 49 -30 57
-55 57 -15 0 -32 -6 -37 -12z m57 -188 c4 -8 14 -31 22 -50 8 -19 29 -66 47
-105 18 -38 38 -83 45 -100 7 -16 20 -46 28 -65 27 -61 38 -91 38 -100 0 -13
-397 -13 -405 0 -3 5 9 40 26 77 17 37 38 83 46 100 36 84 44 102 72 164 17
36 31 73 31 83 0 22 39 18 50 -4z"/>
<path d="M2105 998 c-3 -7 -4 -222 -3 -478 l3 -465 53 -3 52 -3 0 139 c0 100
4 143 13 150 7 6 91 12 197 14 119 2 192 8 205 15 11 7 37 20 58 29 51 23 115
98 139 165 15 43 19 71 15 141 -4 77 -9 94 -41 152 -41 74 -77 105 -154 135
-48 19 -73 21 -293 21 -182 0 -241 -3 -244 -12z m488 -107 c56 -27 81 -51 108
-103 26 -51 26 -158 -1 -213 -28 -59 -41 -71 -108 -105 l-62 -31 -157 3 -158
3 -3 225 c-1 123 0 231 3 238 4 11 39 13 167 10 148 -3 168 -5 211 -27z"/>
<path d="M3014 996 c-3 -8 -4 -27 -2 -43 l3 -28 154 -3 c93 -1 160 -7 168 -13
10 -9 13 -97 13 -436 l0 -424 53 3 52 3 5 430 5 430 162 3 c181 3 178 1 164
85 0 4 -174 7 -386 7 -323 0 -387 -2 -391 -14z"/>
<path d="M4025 998 c-3 -7 -4 -222 -3 -478 l3 -465 53 -3 52 -3 0 480 0 481
-50 0 c-31 0 -52 -5 -55 -12z"/>
<path d="M5845 998 c-3 -7 -4 -222 -3 -478 l3 -465 135 0 135 0 3 89 c2 50 7
95 13 102 6 7 56 14 132 17 162 7 241 37 314 120 61 70 75 118 77 258 1 107
-2 131 -19 165 -50 99 -105 146 -211 184 -53 18 -82 20 -316 20 -198 0 -260
-3 -263 -12z m420 -219 c52 -15 81 -44 101 -101 13 -40 13 -55 4 -85 -29 -90
-83 -126 -183 -121 l-62 3 -3 145 c-1 79 0 150 2 157 7 16 85 17 141 2z"/>
<path d="M7123 998 c-6 -7 -34 -62 -63 -123 -29 -60 -131 -267 -226 -460 -96
-192 -174 -353 -174 -357 0 -5 63 -8 140 -8 l139 0 36 75 36 75 178 0 c160 0
180 -2 194 -18 10 -10 17 -23 17 -28 0 -5 10 -30 22 -56 l23 -48 136 0 c74 0
138 3 142 6 3 3 -14 45 -37 92 -24 48 -130 261 -235 475 l-193 387 -63 0 c-38
0 -66 -5 -72 -12z m98 -435 c30 -75 49 -129 49 -140 0 -19 -124 -18 -139 1
-13 16 -6 60 15 91 8 11 14 27 14 35 0 19 19 40 37 40 8 0 18 -12 24 -27z"/>
<path d="M8875 998 c-3 -7 -4 -222 -3 -478 l3 -465 130 0 130 0 5 105 c5 112
22 155 56 148 9 -1 51 -41 92 -88 41 -47 92 -104 112 -127 l38 -43 176 0 c97
0 176 3 176 8 -1 4 -30 39 -66 77 -35 39 -86 94 -112 124 -26 30 -89 100 -139
157 -51 56 -93 108 -93 116 0 7 19 33 43 58 24 25 79 88 122 140 44 52 83 97
86 100 24 21 139 161 139 170 0 6 -55 10 -157 10 l-158 0 -80 -96 c-44 -53
-88 -106 -98 -118 -11 -11 -40 -47 -65 -78 -26 -32 -53 -58 -59 -58 -9 0 -13
44 -15 173 l-3 172 -128 3 c-96 2 -129 -1 -132 -10z"/>
<path d="M9935 998 c-3 -7 -4 -222 -3 -478 l3 -465 138 -3 c89 -2 137 1 137 8
0 5 0 217 0 470 0 253 0 465 0 470 0 16 -269 13 -275 -2z"/>
<path d="M10435 998 c-3 -7 -4 -222 -3 -478 l3 -465 135 0 135 0 3 227 c2 220
3 226 22 221 11 -3 87 -69 168 -147 81 -79 185 -179 232 -224 l85 -82 68 0 67
0 0 480 0 481 -137 -3 -138 -3 -3 -227 c-1 -144 -6 -228 -12 -228 -6 0 -90 75
-187 168 -97 92 -206 195 -242 229 l-66 63 -63 0 c-41 0 -64 -4 -67 -12z"/>
</g>
</svg>
