<?xml version="1.0" standalone="no"?>
<!DOCTYPE svg PUBLIC "-//W3C//DTD SVG 20010904//EN"
 "http://www.w3.org/TR/2001/REC-SVG-20010904/DTD/svg10.dtd">
<svg version="1.0" xmlns="http://www.w3.org/2000/svg"
 width="201.000000pt" height="200.000000pt" viewBox="0 0 201.000000 200.000000"
 preserveAspectRatio="xMidYMid meet">
<metadata>
Created by potrace 1.10, written by Peter Selinger 2001-2011
</metadata>
<g transform="translate(0.000000,200.000000) scale(0.100000,-0.100000)"
fill="#000000" stroke="none">
<path d="M70 995 l0 -945 943 0 942 0 -2 167 -2 168 -186 380 -186 380 -51 0
-52 0 -185 -375 c-102 -206 -187 -378 -189 -382 -2 -5 48 -8 112 -8 l116 0 27
61 28 60 140 1 140 0 27 -53 c20 -40 27 -69 28 -111 l0 -58 -710 0 -710 0 0
715 0 715 710 0 710 0 0 -214 0 -215 115 -232 c63 -128 116 -234 118 -235 1
-1 2 252 2 562 l0 564 -942 0 -943 0 0 -945z m1844 889 c9 -24 7 -857 -3 -872
-5 -9 -31 35 -79 132 l-72 145 0 205 c0 192 -1 207 -20 226 -11 11 -30 22 -42
25 -13 3 -331 4 -706 3 l-684 -3 -24 -28 -24 -28 0 -695 0 -696 29 -29 30 -29
701 2 702 3 20 25 c17 21 19 35 15 85 -5 62 -42 148 -74 173 -12 8 -61 12
-159 12 l-142 0 -26 -31 c-15 -17 -33 -44 -42 -60 -14 -27 -18 -29 -79 -29
-46 0 -65 4 -64 13 0 6 73 158 162 337 146 292 165 325 188 328 14 2 31 -3 36
-10 6 -7 89 -168 184 -358 l173 -345 4 -126 c3 -83 0 -134 -7 -148 l-12 -21
-892 2 -892 3 -3 890 c-1 490 0 896 3 903 3 9 192 12 899 12 806 0 894 -2 900
-16z"/>
<path d="M1491 824 c-11 -14 -29 -51 -41 -81 -17 -46 -18 -58 -8 -72 22 -27
31 -31 83 -31 56 0 95 20 95 50 0 27 -38 112 -62 138 -28 29 -42 28 -67 -4z
m66 -61 c40 -94 42 -88 -32 -88 -40 0 -63 4 -61 10 3 6 17 40 32 77 15 37 30
66 32 63 3 -2 16 -31 29 -62z"/>
</g>
</svg>
